<?xml version="1.0" encoding="UTF-8" standalone="no"?>
<!-- Created with Inkscape (http://www.inkscape.org/) -->

<svg
   width="105mm"
   height="32mm"
   viewBox="0 0 105 32"
   version="1.1"
   id="svg1"
   xml:space="preserve"
   sodipodi:docname="fig_one_rev2.svg"
   inkscape:version="1.3 (0e150ed, 2023-07-21)"
   xmlns:inkscape="http://www.inkscape.org/namespaces/inkscape"
   xmlns:sodipodi="http://sodipodi.sourceforge.net/DTD/sodipodi-0.dtd"
   xmlns="http://www.w3.org/2000/svg"
   xmlns:svg="http://www.w3.org/2000/svg"><sodipodi:namedview
     id="namedview1"
     pagecolor="#949494"
     bordercolor="#000000"
     borderopacity="0.25"
     inkscape:showpageshadow="2"
     inkscape:pageopacity="0.0"
     inkscape:pagecheckerboard="0"
     inkscape:deskcolor="#d1d1d1"
     inkscape:document-units="mm"
     inkscape:zoom="0.9910643"
     inkscape:cx="264.86677"
     inkscape:cy="244.68644"
     inkscape:window-width="1760"
     inkscape:window-height="910"
     inkscape:window-x="1365"
     inkscape:window-y="30"
     inkscape:window-maximized="0"
     inkscape:current-layer="layer1" /><defs
     id="defs1"><inkscape:path-effect
       effect="mirror_symmetry"
       start_point="58.159705,28.660836"
       end_point="58.159705,52.963881"
       center_point="58.159705,40.812359"
       id="path-effect1"
       is_visible="true"
       lpeversion="1.2"
       lpesatellites=""
       mode="free"
       discard_orig_path="false"
       fuse_paths="false"
       oposite_fuse="false"
       split_items="false"
       split_open="false"
       link_styles="false" /></defs><g
     inkscape:label="Layer 1"
     inkscape:groupmode="layer"
     id="layer1"><path
       style="fill:#000000;stroke-width:0.604966"
       d="m 16.615677,26.825553 c -0.40707,-0.0603 -0.975556,-0.235363 -1.380484,-0.425119 -1.559897,-0.730992 -2.809859,-2.438322 -3.235718,-4.419683 -0.133411,-0.62071 -0.164301,-1.702092 -0.06812,-2.384823 0.04197,-0.297887 0.0763,-0.577615 0.0763,-0.621616 0,-0.05767 -0.08907,-0.107125 -0.319018,-0.177148 -0.828063,-0.252157 -1.566783,-0.963487 -1.9989702,-1.924857 -0.227946,-0.507048 -0.413209,-1.30507 -0.495587,-2.134736 -0.04063,-0.409236 -0.137428,-1.318197 -0.2151,-2.019913 C 8.7163148,10.344662 8.7901338,9.4380596 9.3368848,8.3220892 10.130415,6.7024201 11.690991,5.4502057 13.543299,4.946842 c 0.872876,-0.237203 1.11983,-0.2632477 2.457979,-0.2592237 1.657649,0.005 1.956631,0.05713 4.064516,0.7089374 0.685699,0.212033 0.722089,0.218128 1.110652,0.186021 0.467828,-0.03866 1.588233,-0.03641 2.033645,0.0041 0.263552,0.02396 0.370466,0.0074 0.732559,-0.113701 2.00422,-0.6700797 2.653085,-0.7885644 4.323068,-0.7894074 1.258499,-6.05e-4 1.603974,0.03669 2.434347,0.2630307 2.414958,0.6582507 4.29088,2.5782515 4.66023,4.7697413 0.08779,0.5209097 0.05094,1.6748457 -0.09591,3.0013467 -0.07767,0.701716 -0.174466,1.610677 -0.215095,2.019914 -0.08238,0.829665 -0.267643,1.627688 -0.495589,2.134736 -0.432187,0.961369 -1.170906,1.6727 -1.998971,1.924857 -0.229948,0.07002 -0.319017,0.119481 -0.319017,0.177148 0,0.044 0.0343,0.323728 0.0763,0.621616 0.09618,0.682731 0.06529,1.764113 -0.06813,2.384823 -0.269857,1.255566 -0.882216,2.429611 -1.734184,3.324887 -0.659647,0.693173 -1.421809,1.149674 -2.343551,1.403679 -0.355246,0.0979 -0.592671,0.127743 -1.188365,0.14939 -0.830871,0.03019 -1.362754,-0.02349 -2.044024,-0.206305 -0.233946,-0.06278 -0.457717,-0.121888 -0.49727,-0.131353 -0.365566,-0.08749 -1.767442,-0.645948 -1.842189,-0.73387 -0.013,-0.01529 -0.12237,-0.0792 -0.243051,-0.142021 l -0.219419,-0.114225 -0.678555,0.337101 c -1.374094,0.682639 -2.671188,1.010119 -3.95457,0.998419 -0.355693,-0.0033 -0.753054,-0.02165 -0.883025,-0.0409 z m 1.448294,-1.041095 c 0.269192,-0.02647 0.59578,-0.07142 0.72575,-0.09989 0.41702,-0.09133 1.362432,-0.383396 1.630532,-0.503713 0.988705,-0.443705 1.417855,-0.691973 1.417855,-0.820245 0,-0.111597 -0.181062,-1.710091 -0.218711,-1.930874 -0.0306,-0.179428 -0.132392,-0.366953 -0.250356,-0.461203 -0.04094,-0.03271 -0.260327,-0.157048 -0.487517,-0.276299 -0.54426,-0.285679 -0.839555,-0.526943 -0.995387,-0.813259 -0.22318,-0.410055 -0.149843,-0.918678 0.167345,-1.16061 0.421012,-0.321121 1.042975,-0.459221 2.068197,-0.459221 1.025221,0 1.647185,0.1381 2.068196,0.459221 0.326117,0.248742 0.393042,0.766374 0.153163,1.184633 -0.166596,0.29048 -0.421502,0.495428 -0.982375,0.78984 -0.74063,0.388771 -0.696431,0.299306 -0.860162,1.741069 -0.05239,0.461315 -0.09525,0.880157 -0.09525,0.93076 0,0.125393 0.747836,0.540733 1.488748,0.826835 0.311927,0.12045 0.600311,0.237183 0.640852,0.259407 0.04054,0.02223 0.200049,0.06641 0.354463,0.09818 0.154414,0.03177 0.316904,0.07684 0.361088,0.100135 0.135509,0.07146 1.460641,0.191567 1.762876,0.159788 1.018516,-0.107097 1.640946,-0.341124 2.29982,-0.864707 0.936634,-0.74431 1.654856,-2.011091 1.904247,-3.358686 0.0948,-0.512233 0.09364,-1.449552 -0.0024,-2.054496 -0.09861,-0.620247 -0.122923,-0.677489 -0.304782,-0.717432 -0.611554,-0.13432 -1.400455,-0.71481 -1.774351,-1.305607 -0.311838,-0.492741 -0.681244,-1.577353 -0.755844,-2.219237 -0.01331,-0.114577 -0.04315,-0.28276 -0.06631,-0.373739 -0.05789,-0.227476 -0.215171,-1.600251 -0.333019,-2.906601 C 27.770386,9.6778433 27.604065,9.0314866 27.021958,8.2828782 26.513567,7.6290715 25.42696,7.0867148 24.06988,6.8094121 c -0.896392,-0.183166 -1.518927,-0.231512 -2.645178,-0.205424 -0.190325,0.0044 -1.250164,0.195786 -1.667267,0.3010617 -1.167064,0.294564 -2.078541,0.7898217 -2.535766,1.3778284 -0.582107,0.7486084 -0.748428,1.3949651 -0.958681,3.7256288 -0.118679,1.315564 -0.275415,2.681098 -0.33362,2.906601 -0.02348,0.09098 -0.05377,0.254736 -0.0673,0.363905 -0.07043,0.568062 -0.355276,1.486525 -0.609999,1.966869 -0.236828,0.4466 -0.554578,0.813881 -0.944806,1.092082 -0.304581,0.217142 -0.719621,0.419902 -0.973792,0.475727 -0.181857,0.03994 -0.206175,0.09718 -0.304784,0.717432 -0.09618,0.604944 -0.09733,1.542263 -0.0025,2.054496 0.249395,1.347595 0.967612,2.614376 1.904248,3.358686 0.635874,0.505306 1.235482,0.738262 2.205296,0.856791 0.277352,0.0339 0.445076,0.03089 0.928414,-0.01664 z m 1.50557,-2.07865 c -0.113756,-0.113756 -0.118186,-0.181494 -0.02095,-0.320317 0.169263,-0.241658 0.555925,-0.03889 0.451183,0.236598 -0.07442,0.19574 -0.278498,0.235451 -0.430232,0.08372 z m 4.782204,0.0622 c -0.03418,-0.01367 -0.08259,-0.07867 -0.107595,-0.144434 -0.105252,-0.276834 0.280661,-0.480735 0.450617,-0.238088 0.09723,0.138823 0.0928,0.206561 -0.02095,0.320317 -0.09225,0.09225 -0.196588,0.112405 -0.322071,0.0622 z m -5.527877,-0.797444 c -0.206453,-0.144605 -0.101741,-0.446307 0.1549,-0.446307 0.246331,0 0.355233,0.277206 0.17351,0.441662 -0.107872,0.09762 -0.193928,0.09884 -0.32841,0.0047 z m 6.258999,-0.01286 c -0.16565,-0.183041 -0.06067,-0.433451 0.181722,-0.433451 0.256641,0 0.361354,0.301702 0.154901,0.446307 -0.13828,0.09686 -0.240882,0.09294 -0.336623,-0.01285 z m -5.314001,-0.208948 c -0.107515,-0.130806 -0.08592,-0.347762 0.04139,-0.415897 0.248261,-0.132865 0.50646,0.124759 0.355676,0.354884 -0.08614,0.131464 -0.310783,0.165983 -0.397062,0.06101 z m 4.317977,-0.03125 c -0.183443,-0.202701 0.06633,-0.509678 0.320475,-0.39388 0.136586,0.06223 0.179333,0.20301 0.106352,0.350247 -0.07383,0.148957 -0.30969,0.173068 -0.426827,0.04364 z m -5.99433,-4.892333 c -0.636052,-0.226984 -0.930864,-0.968379 -0.62171,-1.563478 0.158963,-0.305993 0.360956,-0.477802 0.67081,-0.57057 0.890533,-0.26662 1.721782,0.675654 1.339148,1.518012 -0.117495,0.258661 -0.474929,0.564956 -0.735992,0.630693 -0.268836,0.06769 -0.431752,0.06403 -0.652256,-0.01466 z m 7.374744,0.01375 c -0.231624,-0.06519 -0.596214,-0.391038 -0.704661,-0.629781 -0.169865,-0.373955 -0.09358,-0.860481 0.182897,-1.166511 0.474464,-0.525176 1.182575,-0.541978 1.634979,-0.0388 0.259584,0.28872 0.331535,0.489063 0.305401,0.850363 -0.05076,0.701704 -0.735473,1.176997 -1.418616,0.984726 z m -12.416609,-0.06851 c 0.255457,-0.07457 0.585224,-0.243633 0.763012,-0.391181 0.194139,-0.161117 0.496716,-0.610312 0.641093,-0.951742 0.302472,-0.715301 0.477044,-1.775391 0.719918,-4.371717 0.218026,-2.3306967 0.360572,-3.0083794 0.809457,-3.8482608 0.460583,-0.8617684 1.286393,-1.6173981 2.203174,-2.0159378 l 0.350129,-0.152208 -0.246546,-0.05287 C 16.88108,5.6841487 15.445736,5.6414487 14.328788,5.8686304 c -0.526956,0.10718 -1.285815,0.370512 -1.722646,0.5977767 -1.258651,0.6548217 -2.253713,1.8401041 -2.58948,3.0844942 -0.1558892,0.5777417 -0.1418502,1.5427477 0.0471,3.2374337 0.0826,0.740829 0.182824,1.644712 0.222724,2.008627 0.112735,1.02819 0.276251,1.545931 0.688808,2.180965 0.456713,0.703001 1.290801,1.021504 2.075358,0.792491 z m 19.429169,-0.102798 c 0.818815,-0.4031 1.311064,-1.363959 1.478501,-2.885981 0.03908,-0.355488 0.138682,-1.252475 0.221278,-1.993303 0.188949,-1.694686 0.202991,-2.659693 0.04707,-3.2374347 C 33.890903,8.3065062 32.895837,7.1212248 31.637187,6.4664021 31.200359,6.2391384 30.441501,5.9758054 29.914542,5.8686254 28.98702,5.6799727 27.655725,5.6795847 26.577256,5.8676574 c -0.765958,0.133572 -0.913747,0.180622 -0.740501,0.235745 0.297218,0.09457 0.91714,0.4516027 1.254048,0.7222474 0.962557,0.7732407 1.507247,1.7546641 1.738135,3.1317725 0.05403,0.3222867 0.162426,1.2665457 0.24087,2.0983537 0.278706,2.95537 0.444235,3.85984 0.853051,4.661187 0.05139,0.100732 0.08421,0.183149 0.07293,0.183149 -0.05415,0 0.491553,0.520717 0.66513,0.634672 0.532231,0.34942 1.269552,0.403268 1.818874,0.132835 z"
       id="path1" /><text
       xml:space="preserve"
       style="font-size:9.87777px;fill:#2b0000;stroke-width:0.264583"
       x="36.836933"
       y="18.835892"
       id="text2"><tspan
         id="tspan2"
         style="font-style:normal;font-variant:normal;font-weight:normal;font-stretch:normal;font-family:'.New York';-inkscape-font-specification:'.New York';fill:#000000;stroke-width:0.264583"
         x="36.836933"
         y="18.835892"
         sodipodi:role="line">Pampered Pets</tspan></text></g></svg>
